<svg xmlns="http://www.w3.org/2000/svg" xmlns:xlink="http://www.w3.org/1999/xlink" width="1080" zoomAndPan="magnify" viewBox="0 0 810 809.999993" height="1080" preserveAspectRatio="xMidYMid meet" version="1.0"><defs><clipPath id="cbfd5d7859"><path d="M 405 111.066406 L 432 111.066406 L 432 217 L 405 217 Z M 405 111.066406 " clip-rule="nonzero"/></clipPath><clipPath id="e6af318a45"><path d="M 607 375 L 707.976562 375 L 707.976562 395 L 607 395 Z M 607 375 " clip-rule="nonzero"/></clipPath></defs><path fill="#937157" d="M 291.566406 524.828125 L 284.3125 541.152344 C 294.414062 540.773438 293.59375 526.914062 306.070312 530.289062 C 306.191406 532.285156 306.277344 534.253906 305.660156 536.222656 C 302.785156 545.441406 282.140625 569.988281 275.5625 580.53125 C 264.113281 598.972656 253.394531 618.351562 244.054688 637.9375 C 242.089844 642.046875 240.707031 649.417969 238.976562 652.382812 C 237.539062 654.878906 229.992188 653.175781 231.664062 660.929688 C 228.40625 661.367188 229.960938 656.964844 230.3125 655.054688 C 231.839844 646.628906 235.777344 638.613281 237.097656 630.097656 L 213.519531 660.078125 L 202.652344 659.078125 C 200.773438 656.316406 209.640625 644.777344 211.757812 641.902344 C 229.492188 617.792969 251.542969 596.503906 268.78125 571.898438 L 278.882812 553.867188 C 277.675781 552.636719 266.871094 561.5625 265.316406 562.972656 C 241.121094 584.699219 226.9375 618.46875 202.683594 638.257812 C 198.394531 641.753906 180.71875 653.441406 180.808594 640.050781 C 180.808594 636.410156 197.925781 621.667969 201.773438 617.410156 C 222.386719 594.566406 243.234375 571.605469 263.464844 548.464844 C 267.605469 543.738281 279.261719 525.648438 283.375 524.828125 C 285.871094 524.328125 288.921875 525.035156 291.535156 524.828125 Z M 291.566406 524.828125 " fill-opacity="1" fill-rule="nonzero"/><path fill="#937157" d="M 327.59375 260.171875 C 328.625 261.671875 327.59375 265.078125 327.890625 267.132812 C 323.132812 271.714844 298.527344 254.945312 293.5625 251.570312 C 289.714844 248.957031 287.21875 244.640625 283.140625 242.027344 C 276.269531 237.621094 267.546875 236.625 260.148438 232.335938 C 252.074219 227.699219 246.113281 219.300781 238.035156 214.542969 C 237.066406 215.894531 239.945312 219.210938 240.886719 220.328125 C 244.320312 224.527344 250.25 229.136719 254.746094 232.308594 C 260.941406 236.710938 290.097656 251.363281 291.742188 253.832031 C 293.152344 255.917969 293.535156 259.175781 293.417969 261.671875 C 289.539062 265.460938 262.320312 249.425781 257.269531 246.109375 C 228.785156 227.285156 217.835938 198.335938 200.890625 170.027344 C 201.007812 165.769531 210.847656 169.675781 212.726562 170.878906 C 216.746094 173.433594 229.375 192.550781 234.394531 198.1875 C 238.125 202.355469 265.902344 230.574219 269.808594 227.167969 C 255.390625 206.730469 241.414062 184.238281 240.765625 158.253906 C 241.589844 157.371094 249.195312 160.542969 250.78125 161.835938 C 255.183594 165.359375 265.667969 184.0625 269.484375 190.316406 C 281.875 210.636719 293.445312 239.238281 313.472656 253.390625 C 316.347656 255.417969 327.125 259.5 327.566406 260.144531 Z M 263.464844 200.007812 L 263.464844 201.828125 C 264.640625 201.210938 264.640625 200.625 263.464844 200.007812 Z M 263.464844 200.007812 " fill-opacity="1" fill-rule="nonzero"/><path fill="#937157" d="M 639.878906 604.460938 C 630.453125 606.929688 630.832031 601.820312 626.457031 597.355469 C 614.417969 585.023438 601.734375 576.597656 586.816406 568.050781 L 562.035156 556.539062 L 631.128906 618.234375 C 634.472656 627.011719 628.835938 628.335938 620.851562 624.753906 C 609.28125 619.554688 555.546875 570.695312 546.53125 559.359375 C 543.035156 554.953125 535.429688 545.589844 545.648438 545.707031 C 543.417969 541.273438 530.703125 540.15625 532.933594 532.109375 C 536.164062 532.757812 539.894531 530.464844 542.714844 530.757812 C 546.792969 531.199219 550.582031 537.25 555.691406 537.511719 C 558.746094 537.660156 561.652344 535.75 564.707031 535.691406 C 574.308594 535.546875 626.105469 572.308594 633.683594 581.058594 C 640.757812 589.25 644.078125 593.246094 639.847656 604.492188 Z M 639.878906 604.460938 " fill-opacity="1" fill-rule="nonzero"/><path fill="#937157" d="M 594.421875 153.144531 L 591.105469 164.652344 C 594.539062 165.386719 596.390625 159.25 599.445312 158.691406 C 601.851562 158.253906 606.078125 160.777344 609.164062 160.160156 C 610.308594 169.644531 603.789062 177.691406 599.089844 185.355469 C 582.03125 213.132812 564.792969 232.660156 538.28125 251.570312 C 529.292969 257.972656 515.140625 263.84375 519.398438 247.222656 C 545.914062 217.773438 567.90625 184.652344 585.644531 149.238281 L 594.421875 153.171875 Z M 594.421875 153.144531 " fill-opacity="1" fill-rule="nonzero"/><path fill="#937157" d="M 407.171875 596.09375 C 412.601562 603.289062 414.511719 653.234375 413.25 663.660156 C 412.691406 668.179688 410.226562 670.851562 409.636719 674.582031 C 408.375 682.65625 409.667969 691.378906 405.027344 698.984375 L 396.246094 693.167969 C 395.101562 683.625 392.078125 673.027344 391.433594 663.601562 C 389.847656 641.078125 389.699219 606.136719 391.34375 583.703125 C 391.578125 580.324219 391.988281 577.09375 393.457031 574.042969 C 410.78125 571.605469 400.535156 582.203125 402.238281 591.074219 C 403.058594 595.300781 406.027344 594.539062 407.199219 596.09375 Z M 407.171875 596.09375 " fill-opacity="1" fill-rule="nonzero"/><path fill="#937157" d="M 212.050781 406.523438 C 215.164062 408.429688 256.125 396.363281 245.40625 412.425781 C 243.351562 415.476562 234.6875 413.6875 230.785156 414.128906 C 199.363281 417.652344 186.855469 415.976562 156.464844 414.039062 C 142.722656 413.15625 126.394531 417.238281 114.59375 415.976562 C 109.484375 415.417969 106.019531 413.65625 102.875 409.515625 C 100.910156 400.414062 134.824219 401.792969 139.84375 401.207031 C 158.578125 398.917969 186.914062 392.839844 205.355469 399.652344 C 211.640625 401.96875 210.757812 405.730469 212.078125 406.523438 Z M 212.050781 406.523438 " fill-opacity="1" fill-rule="nonzero"/><path fill="#937157" d="M 258.914062 464.925781 C 258.386719 478.167969 250.605469 475.117188 240.796875 477.640625 L 253.421875 481.3125 C 253.894531 484.628906 253.335938 488.210938 251.484375 491.03125 C 245.230469 500.632812 202.242188 506.476562 189.9375 509.324219 C 184.15625 510.675781 172.90625 516.898438 168.238281 514.84375 C 164.1875 513.054688 160.722656 508.355469 165.65625 505.035156 C 171.5 501.132812 185.035156 496.902344 192.964844 492.441406 C 214.195312 480.460938 231.78125 460.464844 258.886719 464.925781 Z M 258.914062 464.925781 " fill-opacity="1" fill-rule="nonzero"/><g clip-path="url(#cbfd5d7859)"><path fill="#937157" d="M 420.53125 120.167969 C 420.914062 120.636719 428.78125 116.320312 431.042969 123.222656 C 433.039062 129.300781 430.28125 158.019531 429.28125 166.269531 C 428.195312 175.109375 422.617188 207.496094 418.417969 213.457031 C 414.921875 218.417969 410.429688 216.394531 407.613281 211.957031 C 401.855469 202.855469 408.699219 161.425781 409.609375 148.445312 C 410.460938 136.054688 407.90625 123.339844 411.371094 111.183594 C 419.855469 110.039062 419.296875 118.816406 420.53125 120.226562 Z M 420.53125 120.167969 " fill-opacity="1" fill-rule="nonzero"/></g><path fill="#937157" d="M 654.558594 276.265625 C 655.9375 283.78125 648.363281 285.191406 644.605469 288.949219 C 627.046875 306.449219 617.328125 309.445312 595.863281 320.046875 C 592.601562 321.660156 591.574219 326.449219 587.464844 324.449219 C 580.914062 321.25 580.503906 313.851562 585.644531 308.945312 C 581.445312 308.800781 580.445312 312.675781 575.6875 312.734375 C 566.554688 312.882812 567.671875 304.867188 574.132812 300.136719 C 579.769531 295.996094 627.664062 275.089844 634.621094 273.503906 C 642.960938 271.625 646.925781 274.0625 654.589844 276.292969 Z M 616.476562 296.171875 C 623.257812 295.820312 630.1875 293.296875 634.59375 288.011719 Z M 613.742188 296.171875 L 613.742188 297.996094 C 614.917969 297.378906 614.917969 296.789062 613.742188 296.171875 Z M 610.101562 297.992188 L 610.101562 299.816406 C 611.277344 299.199219 611.277344 298.609375 610.101562 297.992188 Z M 607.371094 299.84375 L 603.761719 299.84375 L 603.761719 301.636719 L 607.371094 301.636719 Z M 601.03125 301.636719 L 601.03125 303.457031 C 602.203125 302.839844 602.203125 302.25 601.03125 301.636719 Z M 601.03125 301.636719 " fill-opacity="1" fill-rule="nonzero"/><path fill="#937157" d="M 253.101562 329.265625 C 254.1875 331.203125 252.804688 334.785156 253.65625 335.902344 C 254.15625 336.546875 267.222656 338.546875 269.777344 339.808594 C 270.191406 343.273438 268.28125 350.527344 263.847656 350.320312 C 257.886719 350.054688 239.769531 345.035156 232.722656 343.242188 C 224.765625 341.21875 191.699219 333.523438 191.671875 324.304688 C 191.640625 315.082031 211.550781 318.050781 217.160156 319.78125 L 200.863281 304.335938 C 199.1875 300.488281 208.320312 299.667969 210.726562 299.757812 Z M 253.101562 329.265625 " fill-opacity="1" fill-rule="nonzero"/><path fill="#937157" d="M 496.640625 608.28125 L 489.417969 602.847656 C 488.15625 606.636719 492.179688 609.101562 492.707031 611.480469 C 494.203125 618.378906 486.128906 624.136719 480.257812 620.171875 C 479.316406 619.527344 471.828125 604.316406 469.128906 600.46875 C 462.492188 590.984375 451.039062 580.558594 445.8125 571.164062 C 441.820312 563.941406 446.8125 561.238281 453.652344 563.265625 C 457.96875 564.558594 462.757812 573.804688 467.601562 575.628906 C 463.871094 564.292969 460.144531 556.128906 476.703125 560.210938 C 485.21875 575.214844 499.285156 590.015625 496.640625 608.28125 Z M 496.640625 608.28125 " fill-opacity="1" fill-rule="nonzero"/><path fill="#937157" d="M 610.101562 472.179688 C 614.800781 476.582031 636.851562 477.933594 639.230469 481.136719 C 643.546875 487.007812 634.972656 485.453125 636.414062 490.296875 L 661.8125 503.039062 C 663.515625 505.507812 655.46875 512.347656 653.386719 513.609375 L 581.210938 481.046875 C 576.714844 479.785156 578.300781 472.148438 581.03125 472.148438 L 610.074219 472.148438 Z M 610.101562 472.179688 " fill-opacity="1" fill-rule="nonzero"/><path fill="#937157" d="M 360.570312 225.4375 C 354.816406 247.636719 341.632812 220.945312 337.375 211.402344 C 335.171875 206.46875 323.894531 176.78125 326.070312 174.636719 C 347.914062 174.167969 355.34375 205.382812 371.199219 217.539062 C 374.722656 222.292969 372.757812 227.257812 368.675781 230.898438 L 360.570312 225.464844 Z M 360.570312 225.4375 " fill-opacity="1" fill-rule="nonzero"/><g clip-path="url(#e6af318a45)"><path fill="#937157" d="M 693.027344 381.0625 C 696.609375 383.207031 707.589844 378.070312 707.179688 386.90625 C 702.273438 385.644531 699.074219 389.667969 695.285156 390.460938 C 678.960938 393.835938 664.160156 392.691406 648.277344 392.308594 C 634.210938 391.988281 614.859375 399.914062 607.253906 386.027344 C 607.195312 374.546875 639.40625 381.738281 646.308594 381.535156 C 657.761719 381.238281 679.402344 372.695312 689.765625 376.308594 C 692.175781 377.160156 692.203125 380.566406 693.054688 381.09375 Z M 693.027344 381.0625 " fill-opacity="1" fill-rule="nonzero"/></g><path fill="#937157" d="M 346.035156 559.300781 L 344.214844 570.164062 C 349.207031 570.546875 355.316406 568.375 358.75 572.925781 C 356.605469 581.324219 347.710938 586.519531 347.828125 595.566406 C 340.484375 597.003906 347.828125 587.726562 346.035156 583.789062 L 342.425781 582.878906 L 313.03125 626.101562 C 293.769531 626.015625 303.8125 617.527344 309.417969 608.894531 C 317.582031 596.328125 325.394531 584.40625 330.589844 570.164062 C 334.347656 559.859375 329.445312 557.921875 346.007812 559.300781 Z M 346.035156 559.300781 " fill-opacity="1" fill-rule="nonzero"/><path fill="#937157" d="M 460.816406 232.21875 C 449.511719 220.472656 476.320312 177.691406 484.28125 166.769531 C 488.714844 160.691406 498.902344 143.863281 503.777344 157.136719 C 493 175.519531 479.609375 193.519531 473.53125 214.101562 C 472.445312 217.800781 471.09375 242.90625 460.847656 232.25 Z M 460.816406 232.21875 " fill-opacity="1" fill-rule="nonzero"/><path fill="#937157" d="M 497.757812 295.117188 C 524.300781 316.023438 558.714844 367.292969 556.398438 402.089844 C 555.488281 415.535156 548.027344 425.726562 546.0625 435.414062 C 543.242188 449.335938 547.675781 452.769531 537.339844 466.601562 C 515.054688 496.433594 473.886719 511.027344 438.648438 518.542969 C 415.628906 523.449219 379.070312 530.964844 356.8125 525.828125 C 335.140625 520.835938 321.019531 506.5625 307.953125 489.414062 C 309.714844 488.09375 312.296875 491.910156 313.324219 493.117188 C 316.054688 496.34375 321.664062 505.15625 325.1875 506.679688 C 334.085938 510.5 317.496094 492.792969 316.996094 492.203125 L 333.292969 504.007812 C 329.035156 498.988281 323.308594 494.085938 319.109375 489.238281 C 314.910156 484.394531 314.234375 476.757812 306.070312 477.671875 C 305.308594 477.023438 308.246094 473.414062 307.511719 472.503906 C 306.921875 471.769531 302.902344 468.125 301.933594 466.363281 C 299.113281 461.136719 295.851562 454.648438 295.179688 448.6875 C 291.832031 448.246094 293.796875 452.359375 294.179688 454.207031 C 295.53125 460.433594 297.96875 466.070312 299.964844 472.03125 C 300.992188 475.144531 301.667969 477.847656 297.910156 474.085938 C 294.621094 465.925781 291.507812 458.761719 289.160156 450.15625 C 284.34375 432.597656 278.941406 398.269531 280.671875 380.625 C 281.757812 369.523438 287.660156 357.308594 293.003906 347.589844 C 320.664062 297.144531 379.511719 249.28125 440.792969 267.691406 C 460.730469 273.679688 481.3125 282.226562 497.726562 295.144531 Z M 413.191406 272.625 C 390.726562 271.742188 369.4375 282.871094 351.527344 295.292969 L 381.859375 282.109375 Z M 483.222656 345.914062 C 485.660156 348.558594 487.246094 352.050781 490.328125 354.226562 C 487.570312 343.917969 479.199219 331.558594 472.183594 323.394531 C 444.992188 291.679688 407.230469 277.441406 371.433594 306.1875 C 377.042969 307.773438 382.828125 303.953125 388.671875 303.457031 C 441.117188 299.023438 450.953125 310.738281 483.191406 345.914062 Z M 346.945312 297.992188 L 346.945312 299.816406 C 348.121094 299.199219 348.121094 298.609375 346.945312 297.992188 Z M 543.828125 414.128906 C 544.179688 413.863281 545.5625 407.460938 545.679688 405.992188 C 549.054688 368.347656 523.863281 336.253906 499.371094 310.738281 L 521.011719 341.6875 C 531.585938 359.714844 537.605469 377.890625 540.1875 398.710938 C 540.453125 400.855469 538.367188 418.503906 543.800781 414.097656 Z M 376.898438 317.960938 C 372.050781 317.578125 368.207031 320.28125 364.359375 322.628906 C 362.128906 323.980469 349.058594 333.347656 351.496094 336.078125 Z M 445.84375 337.929688 C 418.300781 322.835938 386.234375 327.59375 360.601562 344.269531 C 366.707031 342.714844 373.136719 344.09375 379.21875 342.921875 C 383.652344 342.070312 389.699219 337.957031 394.660156 336.605469 C 412.898438 331.644531 423.058594 334.433594 440.324219 338.898438 C 442.144531 339.367188 446.253906 341.304688 445.84375 337.898438 Z M 488.507812 330.644531 L 488.507812 332.46875 C 489.683594 331.851562 489.683594 331.261719 488.507812 330.644531 Z M 504.835938 334.289062 L 504.835938 336.109375 C 506.007812 335.492188 506.007812 334.902344 504.835938 334.289062 Z M 492.121094 336.109375 L 492.121094 337.929688 C 493.292969 337.3125 493.292969 336.726562 492.121094 336.109375 Z M 506.625 337.957031 L 505.773438 338.808594 L 508.476562 341.511719 L 509.328125 340.660156 Z M 384.148438 479.460938 C 383.210938 483.660156 380.890625 481.988281 378.6875 482.222656 C 340.222656 486.304688 311.417969 432.683594 313.382812 398.742188 L 328.800781 339.75 C 308.921875 356.75 302.019531 378.363281 304.308594 404.144531 C 306.128906 424.785156 318.960938 441.257812 326.863281 459.671875 C 328.152344 462.664062 325.863281 466.746094 331.53125 469.476562 L 325.160156 466.777344 L 302.519531 437.734375 C 301.875 449.039062 314.585938 461.050781 316.996094 469.507812 C 317.523438 471.414062 312.503906 468.949219 313.382812 472.179688 C 322.957031 472.738281 326.566406 484.511719 333.261719 491.292969 C 351.996094 510.292969 377.953125 517.339844 404.117188 512.113281 L 384.179688 503.070312 C 392.839844 501.453125 400.535156 505.859375 408.667969 506.679688 C 427.050781 508.472656 443.847656 501.015625 456.765625 488.5625 C 440.820312 493.203125 426.226562 496.667969 409.578125 492.144531 L 431.367188 485.832031 L 438.589844 479.492188 C 421.117188 479.667969 406.171875 490.796875 387.761719 486.714844 C 386.96875 481.808594 388.613281 483.542969 391.785156 482.691406 C 397.039062 481.28125 402.53125 480.429688 407.699219 478.523438 C 409.433594 477.875 411.871094 478.34375 411.339844 475.878906 C 403.03125 475.378906 393.78125 469.507812 387.730469 464.074219 C 383.210938 460.023438 379.746094 453.152344 376.015625 450.390625 C 367.648438 444.226562 350.910156 442.785156 343.277344 432.304688 C 340.984375 433.097656 342.804688 436.03125 343.421875 437.589844 C 350.585938 455.324219 362.742188 478.109375 384.121094 479.492188 Z M 497.582031 343.359375 L 497.582031 345.179688 C 498.757812 344.566406 498.757812 343.976562 497.582031 343.359375 Z M 510.265625 343.390625 L 509.414062 344.242188 L 515.757812 354.195312 L 516.609375 353.34375 Z M 501.191406 350.613281 L 501.191406 352.433594 C 502.367188 351.816406 502.367188 351.230469 501.191406 350.613281 Z M 418.652344 354.226562 C 425.140625 356.898438 432.160156 360.804688 437.648438 365.179688 C 449.867188 374.867188 461.230469 389.078125 471.300781 400.503906 C 472.855469 402.265625 474.003906 404.496094 475.851562 401.472656 C 483.191406 389.402344 473.472656 380.035156 464.871094 372.460938 C 454.210938 363.09375 438.941406 354.695312 424.789062 352.640625 C 422.878906 352.375 418.183594 351.113281 418.652344 354.253906 Z M 366.003906 354.253906 C 347.238281 356.722656 334.90625 371.34375 338.78125 390.519531 C 351.496094 381.621094 358.75 367.527344 366.003906 354.253906 Z M 424.054688 365.148438 C 410.3125 360.1875 402.296875 350.320312 387.761719 359.714844 L 388.671875 363.359375 C 398.304688 359.363281 408.933594 364.0625 418.917969 365.765625 C 420.796875 366.089844 424.464844 368.644531 424.027344 365.179688 Z M 517.546875 356.074219 L 517.546875 357.894531 C 518.722656 357.277344 518.722656 356.691406 517.546875 356.074219 Z M 525.683594 421.378906 C 522.070312 420.644531 522.570312 417.679688 522.070312 415.007812 C 519.429688 401 517.960938 388.757812 513.027344 375.042969 C 511.148438 369.789062 508.125 361.566406 503.925781 357.835938 C 507.152344 368.730469 512.46875 380.683594 514.347656 391.871094 C 516.519531 404.878906 514.378906 410.898438 513.171875 422.4375 C 511.96875 433.976562 513.820312 444.136719 505.746094 453.972656 C 510.0625 454.089844 513.378906 447.894531 515.582031 444.753906 C 521.835938 435.828125 529.089844 420.351562 529.382812 409.488281 C 529.441406 407.609375 528.707031 401.296875 525.742188 401.355469 L 525.742188 421.292969 Z M 447.664062 390.519531 C 432.128906 373.429688 401.152344 368.085938 378.980469 372.664062 C 373.988281 383.207031 375.429688 392.191406 376.898438 403.234375 C 380.1875 402.410156 378.367188 395.863281 379.511719 392.25 C 383.769531 378.714844 403.941406 378.539062 415.453125 380.125 C 426.960938 381.710938 436.621094 388.375 447.691406 390.519531 Z M 373.226562 446.78125 C 369.117188 435.414062 363.890625 424.347656 361.363281 412.394531 C 359.601562 404.144531 359.601562 395.160156 357.839844 386.90625 C 351.292969 391.222656 340.308594 409.136719 340.925781 416.386719 C 342.070312 429.867188 362.039062 441.730469 373.257812 446.78125 Z M 411.371094 388.726562 C 395.277344 385.261719 380.128906 399.179688 386.058594 414.921875 L 382.621094 416.152344 L 382.328125 418.621094 L 392.3125 430.394531 C 383.179688 425.316406 372.226562 417.621094 369.585938 406.84375 L 366.003906 410.457031 L 364.152344 392.339844 C 360.894531 392.308594 362.15625 400.265625 362.390625 402.292969 C 365.035156 427.988281 378.777344 456.644531 404.292969 465.632812 C 409.375 467.421875 415.070312 468.15625 420.414062 468.566406 L 407.730469 472.148438 C 411.957031 470.828125 417.917969 474.5 421.089844 474.058594 C 422.265625 473.910156 422.117188 471.269531 422.703125 470.917969 C 424.9375 469.625 428.34375 470.710938 431.191406 469.359375 C 441.90625 464.191406 456.265625 453.972656 463.960938 444.957031 C 444.785156 452.945312 425.789062 450.917969 405.878906 452.183594 C 409.84375 446.957031 419.355469 448.277344 426.257812 446.25 C 432.070312 444.546875 437.53125 440.027344 443.992188 439.46875 C 444.492188 436.414062 439.558594 437.472656 437.679688 437.675781 C 428.753906 438.703125 421.707031 441.671875 414.953125 432.246094 C 425.699219 430.101562 452.125 432.800781 450.363281 417.710938 C 443.082031 427.957031 410.253906 430.570312 403.058594 423.257812 C 393.371094 413.363281 402.648438 396.097656 411.339844 388.699219 Z M 453.125 430.453125 C 457.441406 434.183594 470.363281 417.621094 471.007812 412.777344 C 471.507812 409.105469 457.734375 389.8125 458.5 402.382812 C 459.144531 413.304688 459.4375 420.382812 453.09375 430.425781 Z M 478.523438 419.558594 C 485.6875 414.625 486.21875 405.199219 483.925781 397.800781 C 481.519531 398.742188 477.320312 406.257812 476.9375 408.195312 C 476.144531 412.1875 478.554688 415.683594 478.523438 419.558594 Z M 442.230469 403.261719 C 441.027344 401.851562 409.578125 394.835938 411.371094 406.84375 C 415.773438 406.523438 417.769531 411.925781 420.441406 413.21875 C 427.988281 416.800781 447.105469 409.078125 442.203125 403.261719 Z M 380.507812 408.664062 L 380.507812 405.054688 L 378.71875 405.054688 L 378.71875 408.664062 Z M 407.730469 405.054688 L 404.117188 405.054688 C 404.117188 405.054688 404.117188 412.304688 404.117188 412.304688 C 407.730469 411.335938 408.199219 408.429688 407.730469 405.054688 Z M 493.03125 414.128906 L 493.03125 408.695312 L 491.238281 408.695312 L 491.238281 414.128906 Z M 474.882812 417.769531 C 470.183594 416.683594 471.742188 419.148438 470.214844 421.203125 C 467.925781 424.285156 466.046875 428.367188 463.785156 431.15625 C 461.789062 433.625 458.527344 433.214844 458.558594 435.886719 C 467.160156 433.449219 477.292969 428.191406 474.882812 417.769531 Z M 424.054688 419.589844 L 413.191406 419.589844 L 413.191406 421.378906 L 424.054688 421.378906 Z M 494.851562 425.019531 C 488.097656 433.507812 478.9375 438.878906 474.03125 448.660156 L 450.363281 470.359375 C 470.714844 462.167969 490.300781 447.75 494.820312 425.019531 Z M 297.027344 437.707031 L 297.027344 434.09375 L 295.238281 434.09375 L 295.238281 437.707031 Z M 304.28125 455.851562 C 304.925781 452.679688 303.195312 450.539062 302.226562 447.953125 C 301.460938 445.929688 299.347656 439.910156 297.058594 439.554688 C 296.410156 442.726562 298.144531 444.871094 299.113281 447.453125 C 299.875 449.480469 301.992188 455.5 304.28125 455.851562 Z M 502.132812 484.894531 C 503.660156 486.507812 533.054688 459.464844 531.144531 452.242188 C 520.425781 462.046875 507.273438 470.535156 502.132812 484.894531 Z M 360.542969 477.640625 C 361.128906 474.207031 358.425781 471.589844 355.109375 472.207031 Z M 371.433594 479.460938 L 367.824219 479.460938 L 367.824219 481.253906 L 371.433594 481.253906 Z M 335.140625 510.324219 L 329.738281 509.382812 L 332.441406 512.113281 L 335.140625 512.113281 Z M 335.140625 510.324219 " fill-opacity="1" fill-rule="nonzero"/><path fill="#937157" d="M 304.28125 483.074219 L 302.488281 483.074219 L 301.550781 477.671875 L 304.28125 480.371094 Z M 304.28125 483.074219 " fill-opacity="1" fill-rule="nonzero"/><path fill="#937157" d="M 397.746094 212.722656 C 398.917969 213.339844 398.917969 213.925781 397.746094 214.542969 Z M 397.746094 212.722656 " fill-opacity="1" fill-rule="nonzero"/><path fill="#937157" d="M 381.417969 501.21875 C 382.59375 501.835938 382.59375 502.421875 381.417969 503.039062 Z M 381.417969 501.21875 " fill-opacity="1" fill-rule="nonzero"/><path fill="#937157" d="M 334.230469 472.179688 C 335.40625 472.796875 335.40625 473.382812 334.230469 474 Z M 334.230469 472.179688 " fill-opacity="1" fill-rule="nonzero"/><path fill="#937157" d="M 522.980469 423.199219 C 524.15625 423.816406 524.15625 424.40625 522.980469 425.019531 Z M 522.980469 423.199219 " fill-opacity="1" fill-rule="nonzero"/></svg>